<svg width="500" height="500" viewBox="0 0 500 500" fill="none" xmlns="http://www.w3.org/2000/svg">
<path d="M189.931 83.2132L194.464 84.3102L207.693 72.9162L209.882 63.8672C209.882 63.8672 216.993 65.1312 213.303 76.7812C209.611 88.4312 211.233 85.6302 211.233 85.6302C211.233 85.6302 226.098 89.2872 227.022 90.8792C227.694 92.0362 224.525 106.914 222.741 114.967C221.843 119.021 218.46 122.175 214.477 122.221C213.911 122.228 213.353 122.177 212.824 122.049C209.113 121.151 190.882 113.547 190.882 113.547L183.051 111.652L189.931 83.2132Z" fill="#EBEBEB"/>
<path d="M177.554 77.5898L172.84 109.272L180.604 111.15L187.955 80.7668L177.554 77.5898Z" fill="#EBEBEB"/>
<path d="M245.219 56.4233L248.178 55.4143L251.568 44.2133L249.554 38.3063C249.554 38.3063 254.032 36.4663 256.131 44.3843C258.229 52.3033 258.14 50.1343 258.14 50.1343C258.14 50.1343 267.865 46.8613 268.96 47.4293C269.756 47.8423 273.31 57.3993 275.195 62.5973C276.144 65.2143 275.363 68.2143 273.126 69.6713C272.808 69.8793 272.474 70.0503 272.129 70.1683C269.707 70.9943 256.658 73.2433 256.658 73.2433L251.546 74.9853L245.219 56.4233Z" fill="#E0E0E0"/>
<path d="M236.195 57.69L244.914 77.31L249.982 75.582L243.222 55.75L236.195 57.69Z" fill="#E0E0E0"/>
<path d="M340.449 411.148L324.047 458.18H332.248L360.951 411.148H340.449Z" fill="#EBEBEB"/>
<path d="M434.533 411.148L450.934 458.18H442.734L414.031 411.148H434.533Z" fill="#EBEBEB"/>
<path d="M473.535 281.297H342.5V412.332H473.535V281.297Z" fill="#EBEBEB"/>
<path d="M432.48 281.297H301.445V412.332H432.48V281.297Z" fill="#F5F5F5"/>
<path d="M423.481 403.908H310.449V290.875H423.481V403.908ZM311.449 402.908H422.481V291.875H311.449V402.908Z" fill="#E0E0E0"/>
<path d="M311.601 326.467C330.133 327.007 348.75 326.524 367.291 326.53C385.847 326.536 404.428 326.807 422.981 326.495C423.319 326.489 423.319 325.976 422.981 325.97C404.428 325.658 385.847 325.929 367.291 325.935C348.75 325.941 330.133 325.458 311.601 325.998C311.3 326.007 311.299 326.458 311.601 326.467Z" fill="#E0E0E0"/>
<path d="M370.151 309.748C370.151 311.509 368.723 312.937 366.962 312.937C365.201 312.937 363.773 311.509 363.773 309.748C363.773 307.987 365.201 306.559 366.962 306.559C368.723 306.559 370.151 307.987 370.151 309.748Z" fill="#EBEBEB"/>
<path d="M324.21 360.931C324.21 362.692 322.782 364.12 321.021 364.12C319.26 364.12 317.832 362.692 317.832 360.931C317.832 359.17 319.26 357.742 321.021 357.742C322.782 357.741 324.21 359.169 324.21 360.931Z" fill="#EBEBEB"/>
<path d="M426.904 247.27L440.598 282.303L432.085 282.264L425.262 260.735L426.904 247.27Z" fill="#E0E0E0"/>
<path d="M380.141 214.898L375.434 282.023L424.032 283.038L429.501 214.898H380.141Z" fill="#EBEBEB"/>
<path d="M385.001 220.304L381.082 276.176L417.21 277.868L422.258 219.973L385.001 220.304Z" fill="#FAFAFA"/>
<path d="M392.931 228.207L390 267.48H409.929L413.445 228.207H392.931Z" fill="#E0E0E0"/>
<path d="M132.944 48.3125H47.125V137.771H132.944V48.3125Z" fill="#E0E0E0"/>
<path d="M127.132 48.3125H41.3125V137.771H127.132V48.3125Z" fill="#EBEBEB"/>
<path d="M115.595 60.3398H52.8477V125.748H115.595V60.3398Z" fill="#FAFAFA"/>
<path d="M52.847 126.179C52.889 126.229 52.286 126.905 51.279 127.957C50.272 129.009 48.86 130.437 47.281 131.992C45.702 133.548 44.254 134.937 43.189 135.926C42.124 136.915 41.442 137.504 41.397 137.458C41.351 137.412 41.951 136.739 42.958 135.687C43.965 134.635 45.38 133.204 46.963 131.645C48.546 130.086 49.996 128.695 51.061 127.706C52.126 126.716 52.806 126.13 52.847 126.179Z" fill="#E0E0E0"/>
<path d="M115.597 126.022C115.647 125.98 116.323 126.583 117.375 127.59C118.427 128.597 119.855 130.009 121.41 131.588C122.966 133.167 124.355 134.615 125.344 135.68C126.333 136.745 126.922 137.427 126.876 137.472C126.83 137.518 126.157 136.919 125.105 135.911C124.053 134.904 122.622 133.489 121.063 131.906C119.504 130.323 118.113 128.873 117.124 127.808C116.133 126.743 115.547 126.064 115.597 126.022Z" fill="#E0E0E0"/>
<path d="M115.424 60.511C115.382 60.461 115.985 59.785 116.992 58.733C117.999 57.681 119.411 56.253 120.99 54.698C122.569 53.142 124.017 51.753 125.082 50.765C126.147 49.776 126.829 49.187 126.874 49.233C126.92 49.279 126.321 49.952 125.313 51.004C124.306 52.056 122.891 53.487 121.308 55.046C119.725 56.605 118.275 57.996 117.21 58.985C116.145 59.975 115.466 60.561 115.424 60.511Z" fill="#E0E0E0"/>
<path d="M52.6789 60.6722C52.6289 60.7142 51.9529 60.1112 50.9009 59.1042C49.8489 58.0972 48.4209 56.6852 46.8659 55.1062C45.3099 53.5272 43.9209 52.0792 42.9329 51.0142C41.9439 49.9492 41.3549 49.2672 41.4009 49.2212C41.4469 49.1752 42.1199 49.7752 43.1719 50.7822C44.2239 51.7892 45.654 53.2042 47.214 54.7872C48.773 56.3702 50.164 57.8202 51.153 58.8852C52.142 59.9512 52.7279 60.6302 52.6789 60.6722Z" fill="#E0E0E0"/>
<path d="M115.423 125.744C115.423 125.744 115.415 125.634 115.411 125.428C115.408 125.21 115.404 124.909 115.399 124.517C115.393 123.703 115.385 122.524 115.375 120.99C115.362 117.898 115.344 113.391 115.321 107.664C115.296 96.2107 115.26 79.8857 115.217 60.3367L115.422 60.5417C97.1573 60.5507 75.7053 60.5607 52.8533 60.5717H52.8473L53.0823 60.3357C53.0703 84.3437 53.0583 106.804 53.0493 125.744L52.8473 125.542C71.6063 125.585 87.2243 125.62 98.1663 125.646C103.638 125.669 107.938 125.686 110.888 125.699C112.351 125.709 113.475 125.717 114.252 125.722C114.625 125.727 114.912 125.731 115.12 125.733C115.318 125.737 115.423 125.744 115.423 125.744C115.423 125.744 115.333 125.752 115.144 125.755C114.941 125.758 114.661 125.762 114.298 125.766C113.531 125.771 112.419 125.779 110.973 125.789C108.033 125.801 103.749 125.819 98.2963 125.842C87.3223 125.867 71.6603 125.903 52.8483 125.945H52.6463V125.742C52.6363 106.802 52.6253 84.3417 52.6133 60.3337V60.0977H52.8493H52.8553C75.7063 60.1087 97.1593 60.1187 115.424 60.1277H115.63V60.3327C115.587 79.9357 115.551 96.3067 115.526 107.792C115.503 113.5 115.485 117.99 115.472 121.072C115.462 122.589 115.454 123.755 115.448 124.56C115.443 124.942 115.439 125.236 115.436 125.449C115.431 125.65 115.423 125.744 115.423 125.744Z" fill="#E0E0E0"/>
<path d="M69.4105 87.6641C69.4105 87.6641 68.0665 103.858 85.6045 103.858C85.6045 95.2161 78.4745 88.3941 69.4105 87.6641Z" fill="#EBEBEB"/>
<path d="M101.503 87.6761C101.503 87.6761 85.3086 86.3321 85.3086 103.87C93.9506 103.87 100.773 96.7401 101.503 87.6761Z" fill="#EBEBEB"/>
<path d="M84.8275 78.8125C84.8275 78.8125 71.5975 90.6885 85.5515 103.859C92.0415 96.9825 91.4915 86.2005 84.8275 78.8125Z" fill="#E0E0E0"/>
<path d="M474.449 460.162C474.449 460.306 377.15 460.422 257.153 460.422C137.114 460.422 39.8359 460.305 39.8359 460.162C39.8359 460.018 137.114 459.902 257.153 459.902C377.15 459.902 474.449 460.019 474.449 460.162Z" fill="#263238"/>
<path d="M105.5 253.007C91.233 231.185 93.314 200.009 110.353 180.276C115.642 174.151 123.033 168.827 131.096 169.518C139.352 170.225 146.003 177.305 148.515 185.201C151.027 193.097 150.156 201.651 148.68 209.805C146.614 221.221 143.154 232.902 135.236 241.38C127.317 249.857 115.681 258.569 105.5 253.007Z" fill="#1577E0"/>
<path d="M113.391 358.041C108.018 345.505 111.915 329.632 122.482 321.009C125.762 318.333 130.052 316.259 134.144 317.346C138.333 318.458 141.119 322.709 141.697 327.005C142.276 331.301 141.052 335.629 139.553 339.696C137.454 345.391 134.613 351.095 129.765 354.746C124.916 358.395 118.132 361.829 113.391 358.041Z" fill="#1577E0"/>
<path d="M78.9847 350.55C82.9077 331.204 72.7117 309.857 55.1987 300.749C49.7627 297.922 43.0727 296.248 37.5947 298.992C31.9857 301.802 29.2907 308.645 29.7347 314.903C30.1797 321.161 33.1887 326.934 36.5097 332.256C41.1607 339.707 46.8657 346.955 54.8107 350.7C62.7567 354.446 73.3817 357.315 78.9847 350.55Z" fill="#1577E0"/>
<path d="M81.4569 298.237C88.2879 276.194 76.7059 249.468 57.4029 236.821C51.4119 232.896 43.8259 230.164 37.1319 232.713C30.2779 235.324 26.3409 242.968 26.1249 250.299C25.9089 257.63 28.7319 264.698 31.9719 271.277C36.5079 280.489 42.2949 289.588 51.0979 294.876C59.9009 300.164 74.1469 305.448 81.4569 298.237Z" fill="#1577E0"/>
<path d="M95.1762 405.976C95.1442 405.979 95.0682 405.611 94.9532 404.908C94.8332 404.105 94.6822 403.087 94.4952 401.833C94.4012 401.154 94.2982 400.413 94.1862 399.611C94.0292 398.797 93.8612 397.923 93.6812 396.99C93.3232 395.109 92.9522 392.961 92.3352 390.63C92.0512 389.457 91.7552 388.23 91.4462 386.955C91.0752 385.691 90.6912 384.379 90.2932 383.022C89.5582 380.286 88.4722 377.457 87.4542 374.441C85.1952 368.488 82.3892 362.066 78.9452 355.573C75.4362 349.112 71.6352 343.222 67.9222 338.049C65.9722 335.534 64.2142 333.064 62.3402 330.939C61.4292 329.858 60.5482 328.812 59.7002 327.804C58.8082 326.842 57.9502 325.917 57.1292 325.032C55.5272 323.23 53.9422 321.733 52.5722 320.395C51.8942 319.729 51.2582 319.105 50.6672 318.525C50.0602 317.989 49.5002 317.493 48.9862 317.039C48.0452 316.19 47.2802 315.501 46.6772 314.958C46.1562 314.474 45.8912 314.207 45.9112 314.182C45.9312 314.157 46.2352 314.374 46.7962 314.812C47.4302 315.321 48.2342 315.968 49.2232 316.764C49.7552 317.201 50.3362 317.678 50.9642 318.194C51.5742 318.759 52.2292 319.366 52.9292 320.015C54.3392 321.323 55.9642 322.794 57.6052 324.576C58.4452 325.453 59.3222 326.369 60.2342 327.322C61.1002 328.324 62.0002 329.364 62.9302 330.439C64.8412 332.556 66.6322 335.021 68.6132 337.538C72.3872 342.714 76.2352 348.629 79.7662 355.131C83.2322 361.665 86.0322 368.14 88.2602 374.145C89.2632 377.187 90.3272 380.042 91.0342 382.804C91.4162 384.173 91.7862 385.498 92.1422 386.773C92.4322 388.06 92.7102 389.297 92.9772 390.482C93.5552 392.835 93.8832 395.003 94.1932 396.9C94.3472 397.842 94.4902 398.724 94.6242 399.544C94.7072 400.353 94.7832 401.101 94.8532 401.786C94.9692 403.051 95.0632 404.079 95.1382 404.889C95.1952 405.599 95.2082 405.973 95.1762 405.976Z" fill="#263238"/>
<path d="M94.6709 409.936C94.6549 409.934 94.6559 409.785 94.6719 409.496C94.6969 409.153 94.7279 408.733 94.7659 408.218C94.8759 407.022 95.0269 405.387 95.2179 403.32C95.3229 402.25 95.4399 401.071 95.5669 399.785C95.6649 398.491 95.6999 397.079 95.7789 395.566C95.8919 392.537 96.1809 389.094 96.0749 385.278C96.0659 383.369 96.0559 381.372 96.0459 379.292C96.0249 377.211 95.8279 375.051 95.7229 372.813C95.5729 368.328 94.9629 363.573 94.4239 358.563C93.0549 348.578 90.9169 337.682 87.6619 326.51C84.2989 315.365 80.1519 305.062 75.8559 295.944C73.5759 291.449 71.4949 287.129 69.1759 283.288C68.0439 281.353 67.0319 279.435 65.9149 277.679C64.7899 275.93 63.7089 274.25 62.6759 272.645C60.6849 269.387 58.5649 266.659 56.8199 264.181C55.9289 262.956 55.1299 261.791 54.3419 260.759C53.5349 259.751 52.7949 258.825 52.1229 257.986C50.8369 256.358 49.8199 255.07 49.0749 254.127C48.7629 253.716 48.5079 253.381 48.2999 253.107C48.1289 252.874 48.0469 252.749 48.0599 252.739C48.0719 252.728 48.1779 252.832 48.3729 253.045C48.5999 253.303 48.8779 253.618 49.2189 254.005C49.9979 254.922 51.0619 256.175 52.4069 257.758C53.0989 258.584 53.8629 259.494 54.6949 260.486C55.5049 261.504 56.3269 262.655 57.2399 263.869C59.0299 266.323 61.1939 269.034 63.2269 272.279C64.2799 273.879 65.3809 275.555 66.5279 277.298C67.6649 279.051 68.6969 280.966 69.8479 282.9C72.2049 286.74 74.3209 291.063 76.6309 295.568C80.9889 304.704 85.1799 315.047 88.5579 326.243C91.8279 337.467 93.9509 348.42 95.2779 358.453C95.7959 363.488 96.3799 368.265 96.4969 372.77C96.5859 375.018 96.7649 377.187 96.7679 379.276C96.7569 381.363 96.7469 383.368 96.7369 385.283C96.8009 389.112 96.4649 392.564 96.3019 395.598C96.1979 397.114 96.1369 398.527 96.0119 399.823C95.8549 401.108 95.7119 402.288 95.5809 403.358C95.3169 405.419 95.1069 407.049 94.9539 408.243C94.8789 408.753 94.8179 409.169 94.7679 409.509C94.7189 409.793 94.6869 409.938 94.6709 409.936Z" fill="#263238"/>
<path d="M131.814 195.868C131.828 195.876 131.766 196.014 131.632 196.275C131.467 196.582 131.265 196.958 131.017 197.42C130.422 198.482 129.608 199.935 128.578 201.773C128.055 202.721 127.426 203.748 126.821 204.918C126.232 206.102 125.595 207.383 124.912 208.757C124.223 210.136 123.489 211.606 122.712 213.163C121.969 214.74 121.262 216.444 120.475 218.211C119.711 219.989 118.853 221.827 118.063 223.785C117.303 225.758 116.512 227.808 115.695 229.93C115.286 230.992 114.871 232.072 114.449 233.169C114.072 234.283 113.689 235.415 113.301 236.563C112.527 238.861 111.73 241.225 110.913 243.648C107.889 253.427 105.024 264.317 102.604 275.88C100.262 287.465 98.6168 298.608 97.4038 308.775C96.3638 318.96 95.5938 328.156 95.3838 335.9C95.1878 339.769 95.1478 343.271 95.1348 346.349C95.0848 349.426 95.0738 352.076 95.1458 354.242C95.1758 356.349 95.1988 358.015 95.2158 359.232C95.2138 359.756 95.2118 360.183 95.2108 360.531C95.2048 360.824 95.1928 360.975 95.1768 360.975C95.1608 360.976 95.1398 360.827 95.1148 360.535C95.0918 360.188 95.0628 359.762 95.0268 359.239C94.9668 358.022 94.8848 356.356 94.7818 354.25C94.6538 352.083 94.6118 349.43 94.6118 346.348C94.5748 343.266 94.5688 339.756 94.7228 335.878C94.8488 328.116 95.5508 318.895 96.5468 308.681C97.7158 298.485 99.3388 287.309 101.688 275.692C104.114 264.097 107.014 253.181 110.092 243.387C110.924 240.96 111.736 238.593 112.525 236.291C112.922 235.142 113.313 234.01 113.698 232.895C114.129 231.797 114.553 230.717 114.97 229.654C115.808 227.532 116.617 225.482 117.396 223.509C118.206 221.551 119.086 219.715 119.871 217.94C120.68 216.176 121.409 214.476 122.176 212.905C122.978 211.355 123.737 209.891 124.447 208.518C125.156 207.154 125.818 205.882 126.429 204.705C127.059 203.545 127.714 202.528 128.262 201.592C129.358 199.789 130.224 198.362 130.856 197.321C131.136 196.878 131.364 196.517 131.55 196.223C131.711 195.981 131.8 195.86 131.814 195.868Z" fill="#263238"/>
<path d="M126.967 329.767C127.02 329.803 126.477 330.751 125.45 332.43C124.407 334.098 122.974 336.561 121.295 339.647C119.601 342.727 117.759 346.487 115.89 350.737C114.067 355.007 112.245 359.779 110.646 364.894C109.081 370.021 107.893 374.99 106.99 379.545C106.135 384.109 105.536 388.254 105.197 391.752C104.842 395.247 104.636 398.089 104.557 400.055C104.458 402.021 104.372 403.109 104.307 403.109C104.243 403.109 104.205 402.019 104.193 400.045C104.161 398.071 104.267 395.213 104.539 391.692C104.795 388.168 105.33 383.99 106.144 379.387C107.007 374.793 108.177 369.781 109.754 364.619C111.364 359.469 113.225 354.671 115.103 350.392C117.027 346.133 118.943 342.381 120.719 339.327C122.48 336.266 124.005 333.846 125.145 332.234C126.268 330.609 126.914 329.731 126.967 329.767Z" fill="#263238"/>
<path d="M67.1562 396.152H129.827L122.244 460.16H74.9622L67.1562 396.152Z" fill="#455A64"/>
<path d="M69.4414 453.254L74.7644 460.162H122.241L127.716 453.474L69.4414 453.254Z" fill="#263238"/>
<path d="M127.385 414.979C127.385 415.237 114.38 415.446 98.34 415.446C82.295 415.446 69.293 415.237 69.293 414.979C69.293 414.721 82.296 414.512 98.34 414.512C114.379 414.512 127.385 414.721 127.385 414.979Z" fill="#FAFAFA"/>
<path d="M127.385 419.24C127.385 419.498 114.38 419.707 98.34 419.707C82.295 419.707 69.293 419.498 69.293 419.24C69.293 418.982 82.296 418.773 98.34 418.773C114.379 418.773 127.385 418.982 127.385 419.24Z" fill="#FAFAFA"/>
<path d="M126.601 423.365C126.601 423.623 114.051 423.832 98.573 423.832C83.09 423.832 70.543 423.623 70.543 423.365C70.543 423.107 83.09 422.898 98.573 422.898C114.051 422.898 126.601 423.107 126.601 423.365Z" fill="#FAFAFA"/>
<path d="M332.488 149.712L341.312 134.161C337.408 127.825 335.152 120.365 335.152 112.377C335.152 89.4043 353.775 70.7812 376.748 70.7812C399.721 70.7812 418.344 89.4043 418.344 112.377C418.344 135.349 399.721 153.973 376.748 153.973C367.156 153.973 358.328 150.717 351.292 145.262L351.306 145.281L332.488 149.712Z" fill="#FAFAFA"/>
<path d="M332.488 149.714C333.39 149.495 339.322 148.056 351.276 145.157L351.203 145.362L351.189 145.344L350.586 144.562L351.371 145.162C353.741 146.974 356.574 148.757 359.897 150.238C363.224 151.694 367.03 152.88 371.227 153.422C373.322 153.681 375.51 153.847 377.758 153.729C378.881 153.661 380.024 153.631 381.176 153.531C382.32 153.355 383.481 153.176 384.656 152.994C389.318 152.06 394.081 150.277 398.52 147.51C402.957 144.752 407.061 141.013 410.35 136.425C413.632 131.846 416.119 126.421 417.28 120.529C418.43 114.646 418.328 108.34 416.781 102.242C415.223 96.1648 412.318 90.2268 407.968 85.3418L406.29 83.4948C405.739 82.8738 405.08 82.3618 404.482 81.7918C403.856 81.2528 403.292 80.6418 402.619 80.1658L400.647 78.6908C400.009 78.1738 399.305 77.7577 398.605 77.3397C397.908 76.9167 397.214 76.4938 396.521 76.0728C395.792 75.7188 395.064 75.3648 394.339 75.0128C393.607 74.6748 392.904 74.2748 392.136 74.0318C386.167 71.6598 379.801 70.7517 373.711 71.1867C367.62 71.6187 361.79 73.3578 356.784 76.1658C351.763 78.9508 347.522 82.6728 344.245 86.8348C340.958 90.9978 338.635 95.5938 337.19 100.174C335.755 104.776 335.355 109.344 335.354 113.579C335.46 117.823 336.216 121.739 337.325 125.179C338.437 128.625 339.903 131.594 341.419 134.097L341.458 134.161L341.422 134.224C335.717 144.115 332.932 148.945 332.488 149.714C332.921 148.939 335.638 144.07 341.203 134.101L341.205 134.228C339.663 131.72 338.169 128.74 337.031 125.274C335.896 121.813 335.117 117.87 334.993 113.589C334.977 109.319 335.365 104.706 336.801 100.054C338.246 95.4238 340.581 90.7748 343.894 86.5588C347.197 82.3448 351.477 78.5728 356.552 75.7478C361.611 72.8998 367.509 71.1308 373.673 70.6878C379.835 70.2408 386.282 71.1538 392.327 73.5538C393.104 73.7998 393.817 74.2038 394.559 74.5458C395.294 74.9028 396.03 75.2608 396.769 75.6188C397.471 76.0448 398.175 76.4728 398.88 76.9008C399.588 77.3248 400.301 77.7458 400.948 78.2688L402.945 79.7618C403.626 80.2438 404.198 80.8618 404.832 81.4068C405.437 81.9838 406.104 82.5027 406.662 83.1307L408.362 85.0008C412.765 89.9478 415.707 95.9608 417.282 102.116C418.846 108.292 418.943 114.674 417.773 120.628C416.592 126.59 414.067 132.077 410.74 136.704C407.407 141.339 403.248 145.112 398.758 147.891C394.265 150.679 389.447 152.468 384.735 153.398C383.547 153.578 382.375 153.755 381.219 153.929C380.055 154.026 378.901 154.054 377.768 154.118C375.5 154.229 373.292 154.054 371.179 153.784C366.947 153.221 363.114 152.009 359.769 150.525C356.427 149.016 353.585 147.204 351.212 145.366L351.394 145.184L351.408 145.202L351.53 145.363L351.335 145.408C339.343 148.149 333.393 149.508 332.488 149.714Z" fill="#263238"/>
<path d="M358.711 111.104C358.711 106.524 362.278 103.133 367.145 103.133C371.989 103.133 375.578 106.502 375.578 111.104C375.578 115.706 371.989 119.075 367.145 119.075C362.278 119.075 358.711 115.684 358.711 111.104ZM371.966 111.104C371.966 108.176 369.896 106.172 367.144 106.172C364.391 106.172 362.322 108.176 362.322 111.104C362.322 114.033 364.391 116.036 367.144 116.036C369.896 116.036 371.966 114.033 371.966 111.104Z" fill="#263238"/>
<path d="M383.885 112.756L381.815 114.914V118.811H378.27V103.398H381.815V110.598L388.641 103.398H392.604L386.219 110.268L392.979 118.811H388.817L383.885 112.756Z" fill="#263238"/>
<path d="M303.776 174.331C301.147 180.875 301.228 194.413 305.598 199.948C307.883 202.841 310.983 205.143 312.606 208.454C314.733 212.794 313.825 218.199 311.16 222.231C308.495 226.263 304.31 229.075 299.903 231.06C294.99 233.273 288.983 234.495 284.4 231.661C280.9 229.498 279.047 225.45 277.926 221.492C274.788 210.405 275.926 198.457 279.188 187.405C282.45 176.354 287.747 166.03 293.013 155.781" fill="#263238"/>
<path d="M318.359 266.163L341.8 251.852C341.8 251.852 324.034 217.555 321.32 216.321C318.606 215.087 282.71 209.785 282.71 209.785C271.779 226.967 258.098 222.731 244.311 211.269C243.077 211.516 221.381 216.463 215.706 217.203C210.031 217.943 193.754 243.956 193.754 243.956L212.281 276.351L213.679 309.914C213.679 309.914 214.692 333.781 210.773 346.099L308.983 349.285C308.983 349.285 307.506 342.857 306.717 333.78C306.354 329.613 305.215 325.45 306.069 320.093C308.781 303.068 318.359 266.163 318.359 266.163Z" fill="#1577E0"/>
<path d="M205.223 227.336C206.695 232.28 219.243 239.594 223.617 236.86C225.007 235.991 226.206 234.688 227.816 234.374C229.836 233.981 231.751 235.261 233.705 235.908C238.277 237.421 244.155 235.73 247.454 239.238C249.076 240.963 250.112 243.907 252.479 243.841C253.333 243.817 254.107 243.356 254.936 243.152C257.591 242.499 260.164 244.523 262.891 244.715C264.316 244.815 265.722 244.409 267.092 244.007C273.623 242.092 280.154 240.177 286.686 238.262C288.11 237.844 289.704 237.284 290.3 235.924C287.978 236.668 285.392 236.559 283.141 235.623C281.856 235.088 280.663 234.291 279.299 234.013C275.838 233.307 272.691 236.061 269.252 236.868C265.632 237.718 261.898 236.362 258.427 235.028C252.505 232.752 246.582 230.476 240.66 228.199C235.762 226.316 230.742 224.361 226.845 220.847C225.61 219.734 220.962 222.076 219.507 221.271C218.052 220.467 214.693 217.538 214.693 217.538C214.386 217.317 211.678 219.749 210.502 221.028C209.237 222.405 205.223 227.336 205.223 227.336Z" fill="#FAFAFA"/>
<path d="M213.679 309.915C218.034 308.067 225.516 305.174 230.166 304.298C233.605 303.651 237.139 303.278 240.601 303.782C242.332 304.034 244.119 304.5 245.796 304.004C247.383 303.535 248.605 302.278 250.09 301.547C254.339 299.456 259.423 302.064 264.118 301.448C265.278 301.296 266.477 300.9 267.223 299.999C267.969 299.098 268.058 297.591 267.163 296.837C266.651 296.405 265.947 296.296 265.28 296.235C263.045 296.031 260.794 296.174 258.554 296.318C257.351 296.395 256.148 296.472 254.945 296.55C253.444 296.646 251.911 296.74 250.459 296.35C249.012 295.962 247.735 295.118 246.363 294.514C241.548 292.392 236.013 293.34 230.803 294.075C228.204 294.441 225.533 294.742 222.977 294.148C222.092 293.943 221.21 293.63 220.304 293.687C218.777 293.784 217.49 294.907 215.981 295.161C214.472 295.415 214.377 292.516 212.941 292.215L213.679 309.915Z" fill="#FAFAFA"/>
<path d="M309.307 264.94C308.745 265.241 308.19 265.6 307.559 265.688C304.727 266.081 302.991 261.096 300.28 262.005C299.224 262.359 298.549 263.569 297.442 263.695C296.205 263.836 295.304 262.575 294.166 262.069C292.134 261.165 289.902 262.788 287.686 262.964C285.186 263.162 282.262 261.601 280.398 263.277C279.669 263.932 279.248 265.016 278.302 265.273C277.406 265.517 276.534 264.884 275.644 264.619C272.932 263.811 270.433 266.427 267.644 266.908C264.47 267.456 260.677 265.31 258.259 267.438C257.402 268.192 256.874 269.412 255.777 269.727C254.756 270.021 253.702 269.384 252.64 269.381C250.201 269.375 247.957 272.593 245.902 271.279C246.125 272.443 247.34 273.184 248.516 273.329C249.692 273.473 250.87 273.174 252.046 273.029C258.958 272.179 265.975 276.675 272.678 274.783C274.522 274.262 276.255 273.268 278.166 273.13C281.743 272.871 284.986 275.647 288.569 275.514C291.36 275.411 293.951 273.542 296.726 273.858C299.583 274.183 301.65 276.685 304.247 277.921C307.359 279.401 311.002 278.97 314.417 278.506L315.395 278.274C316.914 273.825 318.261 269.331 318.828 264.687C315.847 263.287 312.208 263.384 309.307 264.94Z" fill="#FAFAFA"/>
<path d="M301.264 324.789C299.903 324.789 298.684 325.575 297.533 326.302C296.382 327.029 295.1 327.751 293.747 327.604C291.292 327.336 289.087 324.319 286.939 325.538C286.348 325.874 285.961 326.474 285.434 326.903C283.93 328.127 281.541 327.787 280.111 329.097C279.373 329.773 278.969 330.832 278.062 331.256C276.351 332.056 274.728 330.081 273.005 329.307C270.302 328.094 267.235 329.973 264.273 329.918C262.77 329.89 261.185 329.369 259.817 329.991C259.078 330.327 258.518 330.954 257.843 331.406C255.583 332.919 252.541 332.216 250.014 331.212C247.486 330.208 244.841 328.927 242.174 329.459C241.433 329.607 240.591 330.073 240.606 330.829C240.612 331.122 240.753 331.394 240.906 331.644C242.494 334.245 245.515 335.585 248.443 336.43C251.652 337.356 255.041 337.903 257.897 339.636C259.708 340.735 261.612 342.361 263.655 341.802C265.266 341.361 266.259 339.679 267.817 339.077C270.02 338.227 272.63 339.77 274.81 338.862C275.539 338.558 276.146 338.001 276.889 337.731C278.817 337.029 280.969 338.438 282.971 337.984C283.688 337.821 284.36 337.422 285.096 337.426C287.001 337.435 288.241 340.055 290.129 339.804C291.297 339.649 292.082 338.419 293.241 338.205C294.768 337.924 296.503 339.468 297.738 338.528C298.018 338.315 298.247 337.981 298.597 337.947C299.087 337.899 299.389 338.442 299.685 338.835C301.028 340.618 305.151 339.467 307.231 338.659L305.877 326.699C305.899 325.135 302.625 324.789 301.264 324.789Z" fill="#FAFAFA"/>
<g opacity="0.3">
<path d="M217.007 227.759C215.147 233.641 214.413 240.078 216.27 245.961C217.129 248.684 218.514 251.205 219.7 253.803C223.743 262.658 225.482 272.552 224.702 282.255C224.675 282.587 224.651 282.944 224.825 283.229C225.22 283.878 226.205 283.641 226.896 283.326C228.375 282.651 229.853 281.976 231.331 281.301C233.246 282.864 233.532 285.955 235.658 287.215C237.907 288.548 240.732 287.059 242.842 285.517C247.494 282.116 251.908 278.148 254.604 273.055C256.455 269.558 257.422 265.673 258.371 261.832C259.209 258.445 260.047 255.052 260.571 251.602C262.624 238.07 259.593 223.828 252.208 212.305" fill="black"/>
</g>
<path d="M310.906 233.027C310.923 233.021 310.997 233.201 311.122 233.549C311.26 233.953 311.434 234.459 311.646 235.077C312.101 236.481 312.721 238.394 313.478 240.728C314.241 243.141 315.139 245.985 316.133 249.131C317.09 252.3 318.158 255.816 318.656 259.646C319.135 263.482 318.824 267.198 318.127 270.453C317.459 273.723 316.476 276.564 315.612 278.92C314.727 281.271 313.928 283.139 313.366 284.425C313.098 285.021 312.878 285.509 312.703 285.898C312.546 286.232 312.456 286.405 312.439 286.398C312.422 286.391 312.48 286.205 312.606 285.858C312.757 285.459 312.947 284.96 313.178 284.349C313.682 283.041 314.427 281.153 315.265 278.795C316.081 276.432 317.022 273.597 317.656 270.359C318.32 267.132 318.609 263.482 318.139 259.713C317.65 255.944 316.605 252.444 315.672 249.268C314.719 246.112 313.857 243.26 313.126 240.839C312.435 238.486 311.868 236.556 311.452 235.141C311.278 234.51 311.136 233.995 311.022 233.583C310.929 233.223 310.888 233.032 310.906 233.027Z" fill="#263238"/>
<g opacity="0.3">
<path d="M319.559 262.601C321.119 257.859 320.648 252.625 319.073 247.889C317.498 243.152 314.879 238.837 312.121 234.676C313.496 244.141 317.832 253.04 318.689 262.566" fill="black"/>
</g>
<g opacity="0.3">
<path d="M239.719 323.185C243.784 317.465 249.708 313.237 256.131 310.41C262.554 307.583 269.484 306.083 276.429 305.076C279.182 304.677 282.172 304.395 284.579 305.79C286.985 307.185 288.13 310.951 286.034 312.779C284.978 313.7 283.478 313.86 282.081 313.961C272.459 314.658 262.296 314.694 253.981 319.585C250.693 321.519 247.768 324.181 244.137 325.347C242.489 325.876 240.048 325.579 239.884 323.857" fill="black"/>
</g>
<path d="M288.762 303.788C288.761 303.806 288.56 303.822 288.179 303.837C287.741 303.847 287.19 303.86 286.514 303.875C286.146 303.879 285.746 303.884 285.312 303.89C284.869 303.919 284.393 303.951 283.885 303.984C282.862 304.064 281.694 304.099 280.416 304.292C279.774 304.372 279.104 304.456 278.407 304.543C277.71 304.641 276.993 304.794 276.246 304.923C274.746 305.156 273.178 305.574 271.518 305.961C268.226 306.849 264.664 308.04 261.043 309.587C257.428 311.153 254.117 312.931 251.175 314.659C249.721 315.553 248.331 316.39 247.083 317.256C245.808 318.082 244.664 318.915 243.619 319.674C242.558 320.413 241.653 321.153 240.835 321.774C240.014 322.391 239.329 322.951 238.773 323.413C238.245 323.837 237.815 324.182 237.474 324.457C237.173 324.691 237.009 324.808 236.997 324.794C236.985 324.781 237.126 324.638 237.405 324.377C237.73 324.083 238.14 323.712 238.642 323.258C239.18 322.771 239.847 322.188 240.653 321.547C241.456 320.902 242.348 320.139 243.399 319.378C244.434 318.597 245.571 317.744 246.841 316.898C248.085 316.013 249.473 315.158 250.928 314.248C253.872 312.487 257.198 310.685 260.837 309.109C264.482 307.551 268.076 306.365 271.398 305.496C273.074 305.119 274.656 304.714 276.17 304.498C276.924 304.377 277.648 304.234 278.351 304.145C279.054 304.069 279.73 303.996 280.377 303.926C281.665 303.756 282.842 303.745 283.871 303.693C284.386 303.674 284.865 303.645 285.306 303.641C285.741 303.652 286.144 303.662 286.513 303.672C287.191 303.696 287.743 303.716 288.182 303.732C288.563 303.751 288.763 303.77 288.762 303.788Z" fill="#263238"/>
<g opacity="0.3">
<path d="M207.644 250.532C205.098 254.057 204.806 258.821 205.855 263.041C206.904 267.261 209.143 271.073 211.354 274.818C211.655 271.079 211.365 267.292 210.496 263.643C209.452 259.259 207.571 254.995 207.578 250.488" fill="black"/>
</g>
<path d="M278.884 115.325C278.938 112.135 282.583 109.874 285.729 110.406C288.875 110.938 291.336 113.499 292.81 116.328C294.284 119.158 294.989 122.314 296.099 125.305C299.086 133.355 304.995 140.195 307.141 148.508C308.648 154.346 308.175 160.567 306.598 166.387C305.02 172.207 302.376 177.679 299.53 182.996C297.807 186.214 295.994 189.416 294.876 192.891C293.758 196.366 293.376 200.194 294.552 203.65C294.711 204.117 294.897 204.637 294.691 205.086C294.377 205.773 293.41 205.8 292.679 205.612C289.008 204.671 286.467 201.061 285.836 197.324C285.206 193.587 286.168 189.76 287.506 186.214C288.844 182.668 290.568 179.257 291.557 175.599C293.723 167.59 292.218 159.123 291.843 150.835C291.631 146.165 291.781 141.444 290.851 136.863C289.922 132.281 287.743 127.726 283.869 125.108C282.361 124.089 280.62 123.375 279.349 122.072C278.078 120.769 277.439 118.557 278.588 117.146" fill="#263238"/>
<path d="M282.164 208.066C282.164 208.066 282.057 203.229 282.062 203.282C282.062 203.282 296.385 200.555 298.921 181.723C300.182 172.358 299.351 157.071 298.268 144.585C297.293 133.347 289.509 119.713 278.322 121.165L243.512 130.844C240.114 131.285 238.995 134.192 239.143 137.616L238.898 139.227L241.8 192.918L242.793 201.883C243.305 212.085 252.176 222.871 263.121 223.161C273.679 223.717 282.309 219.369 282.164 208.066Z" fill="#FFBE9D"/>
<path d="M291.864 156.699C291.939 157.969 290.925 159.079 289.601 159.181C288.279 159.283 287.145 158.34 287.07 157.07C286.996 155.801 288.008 154.689 289.33 154.586C290.654 154.484 291.789 155.429 291.864 156.699Z" fill="#263238"/>
<path d="M295.041 153.135C294.75 153.456 292.895 152.15 290.306 152.218C287.719 152.249 285.85 153.626 285.562 153.315C285.42 153.178 285.712 152.605 286.524 151.982C287.324 151.363 288.7 150.747 290.313 150.716C291.926 150.687 293.296 151.249 294.091 151.838C294.902 152.43 295.185 152.991 295.041 153.135Z" fill="#263238"/>
<path d="M269.846 157.983C269.554 158.304 267.698 156.998 265.11 157.066C262.523 157.097 260.654 158.474 260.366 158.163C260.225 158.026 260.512 157.453 261.329 156.831C262.129 156.211 263.504 155.596 265.117 155.564C266.73 155.535 268.1 156.097 268.895 156.686C269.704 157.278 269.989 157.839 269.846 157.983Z" fill="#263238"/>
<path d="M279.55 172.685C279.534 172.538 281.137 172.222 283.738 171.827C284.398 171.743 285.02 171.597 285.121 171.144C285.266 170.662 284.972 169.956 284.634 169.195C283.974 167.61 283.284 165.948 282.56 164.207C279.676 157.103 277.57 151.256 277.858 151.142C278.145 151.028 280.716 156.694 283.601 163.797C284.296 165.549 284.961 167.219 285.594 168.817C285.862 169.563 286.313 170.404 285.998 171.404C285.832 171.902 285.355 172.272 284.934 172.397C284.513 172.536 284.141 172.552 283.815 172.58C281.192 172.782 279.563 172.833 279.55 172.685Z" fill="#263238"/>
<path d="M282.061 203.28C282.061 203.28 269.459 204.392 256.777 197.172C256.777 197.172 263.428 210.264 282.164 208.065L282.061 203.28Z" fill="#EB996E"/>
<path d="M269.751 151.431C269.453 152.118 266.892 151.625 263.837 151.803C260.778 151.92 258.277 152.656 257.914 152C257.753 151.687 258.22 151.053 259.251 150.434C260.273 149.815 261.877 149.267 263.711 149.176C265.544 149.09 267.193 149.482 268.27 150C269.355 150.518 269.881 151.105 269.751 151.431Z" fill="#263238"/>
<path d="M294.649 145.155C294.124 145.756 291.999 145.195 289.461 145.227C286.922 145.183 284.784 145.733 284.275 145.13C284.051 144.836 284.376 144.239 285.302 143.661C286.214 143.084 287.751 142.594 289.495 142.598C291.239 142.604 292.763 143.101 293.66 143.682C294.571 144.263 294.879 144.862 294.649 145.155Z" fill="#263238"/>
<path d="M277.616 178.119C276.894 177.106 275.63 176.584 274.388 176.498C273.223 176.417 271.627 177.177 270.673 178.28C270.651 178.301 270.633 178.322 270.611 178.344C270.57 178.393 270.512 178.432 270.474 178.483L270.526 178.459C270.18 178.85 269.93 179.338 269.891 179.857C269.802 181.027 270.495 182.151 271.431 182.858C272.919 183.982 275.137 184.147 276.654 183.063C278.172 181.98 278.698 179.638 277.616 178.119Z" fill="#EB996E"/>
<path d="M270.896 175.61C271.046 175.598 271.165 176.209 271.58 177.058C271.983 177.902 272.755 178.991 273.952 179.709C275.153 180.423 276.477 180.585 277.412 180.539C278.357 180.502 278.951 180.316 279.011 180.454C279.067 180.561 278.55 180.998 277.504 181.234C276.481 181.474 274.892 181.421 273.444 180.56C272 179.694 271.198 178.321 270.924 177.306C270.637 176.274 270.775 175.611 270.896 175.61Z" fill="#263238"/>
<path d="M282.598 121.465C282.257 123.333 283.26 125.226 284.637 126.533C286.014 127.84 287.741 128.703 289.351 129.708C294.352 132.831 296.818 139.646 299.162 145.056C303.279 137.214 296.943 127.042 291.711 120.914C290.767 119.809 289.735 118.738 288.444 118.07C287.154 117.401 285.556 117.187 284.248 117.819" fill="#263238"/>
<path d="M299.171 184.076C299.154 184.069 299.23 183.83 299.39 183.383C299.571 182.889 299.808 182.242 300.104 181.434C300.678 179.726 301.522 177.257 302.268 174.124C303.785 167.891 304.901 158.924 303.637 149.171C303.013 144.31 301.972 139.712 300.399 135.775C298.826 131.839 296.584 128.643 294.145 126.57C291.733 124.452 289.277 123.424 287.561 122.953C285.826 122.494 284.814 122.499 284.82 122.438C284.821 122.42 285.07 122.422 285.547 122.442C286.023 122.471 286.724 122.555 287.611 122.756C289.367 123.173 291.895 124.166 294.384 126.289C296.902 128.366 299.225 131.612 300.842 135.593C302.462 139.579 303.522 144.205 304.152 149.104C305.427 158.935 304.241 167.968 302.624 174.211C301.828 177.349 300.927 179.812 300.293 181.503C299.957 182.342 299.674 182.985 299.486 183.421C299.296 183.857 299.188 184.083 299.171 184.076Z" fill="#455A64"/>
<path d="M300.861 197.576C300.852 197.579 300.822 197.505 300.77 197.356C300.711 197.177 300.64 196.959 300.553 196.693C300.389 196.103 300.188 195.213 300.124 194.045C299.947 191.715 300.526 188.268 302.371 184.514C304.143 180.704 307.377 176.88 310.469 172.386C311.998 170.129 313.464 167.641 314.392 164.835C315.31 162.031 315.697 158.94 315.452 155.819C315.209 152.696 314.341 149.704 312.984 147.084C311.623 144.457 309.831 142.196 308.012 140.162C304.345 136.115 300.667 132.744 298.264 129.315C295.795 125.944 294.518 122.727 294.1 120.432C293.666 118.13 293.867 116.832 293.867 116.832C293.941 116.828 293.808 118.131 294.298 120.391C294.773 122.645 296.081 125.79 298.561 129.099C300.976 132.465 304.653 135.783 308.369 139.843C310.211 141.883 312.04 144.169 313.437 146.85C314.832 149.528 315.723 152.588 315.971 155.78C316.222 158.971 315.823 162.13 314.877 164.997C313.919 167.87 312.417 170.391 310.866 172.658C307.724 177.173 304.49 180.939 302.701 184.678C300.838 188.366 300.214 191.739 300.326 194.038C300.4 196.349 300.944 197.558 300.861 197.576Z" fill="#263238"/>
<path d="M279.581 111.633C276.37 109.355 272.233 108.843 268.296 108.899C257.696 109.051 246.938 113.103 239.846 120.981C233.873 127.615 225.042 140.395 223.37 149.164C219.299 170.513 232.793 176.495 221.801 209.821C219.82 215.827 217.32 221.695 216.101 227.901C215.671 230.09 215.445 232.364 215.488 234.616C214.2 238.52 214.989 243.024 216.58 246.905C218.447 251.46 221.302 255.565 223.09 260.152C224.879 264.739 228.816 272.272 226.191 276.436C229.899 275.445 230.032 271.574 232.971 269.105C233.836 272.398 233.808 275.921 232.89 279.2C237.459 278.897 241.912 277.046 245.35 274.02C252.213 267.979 254.37 258.274 255.42 249.192C257.716 229.335 255.472 210.303 250.21 191.019L250.134 191.113C246.308 178.782 239.061 167.396 245.57 164.681C256.904 159.953 246.553 154.969 250.869 143.05C252.217 139.329 253.721 135.39 256.897 133.028C260.679 130.215 265.793 130.357 270.5 130.097C275.206 129.837 280.551 128.604 282.761 124.441L283.047 121.946C284.71 118.376 282.792 113.911 279.581 111.633Z" fill="#263238"/>
<path d="M228.437 190.556C228.408 190.523 228.823 190.357 229.265 189.716C229.716 189.086 230.025 187.927 229.899 186.453C229.583 183.499 228.089 179.416 226.142 174.456C225.209 171.958 224.159 169.199 223.603 166.078C223.03 162.986 223.047 159.451 224.333 156.092C225.578 152.744 227.906 149.587 231.132 147.383C234.323 145.078 238.679 144.731 241.349 141.606C244.095 138.636 245.321 134.747 246.506 131.128C247.106 129.304 247.715 127.502 248.51 125.814C249.294 124.121 250.252 122.558 251.305 121.124C253.432 118.267 255.991 115.972 258.667 114.287C260.005 113.445 261.39 112.754 262.808 112.325C264.224 111.885 265.664 111.755 267.011 111.828C269.723 111.972 272.049 112.806 274.022 113.571C275.989 114.377 277.67 115.088 278.992 115.81C280.311 116.536 281.182 117.366 281.623 118.026C282.064 118.69 282.152 119.106 282.152 119.106C282.123 119.12 281.996 118.717 281.537 118.087C281.077 117.46 280.209 116.676 278.894 115.987C277.581 115.304 275.881 114.616 273.916 113.841C271.946 113.106 269.635 112.31 266.994 112.195C265.68 112.136 264.293 112.272 262.925 112.708C261.555 113.134 260.207 113.815 258.897 114.651C256.275 116.324 253.769 118.594 251.69 121.409C250.661 122.822 249.724 124.36 248.96 126.024C248.184 127.682 247.585 129.464 246.989 131.287C245.809 134.9 244.579 138.872 241.728 141.961C240.338 143.52 238.474 144.559 236.63 145.285C234.778 146.025 232.977 146.723 231.416 147.805C228.28 149.938 226.003 153.006 224.78 156.26C223.517 159.523 223.481 162.954 224.026 166.003C224.553 169.075 225.574 171.825 226.484 174.325C228.385 179.301 229.839 183.421 230.098 186.439C230.196 187.946 229.844 189.143 229.347 189.776C229.109 190.098 228.868 190.292 228.701 190.406C228.532 190.514 228.442 190.564 228.437 190.556Z" fill="#455A64"/>
<path d="M244.957 166.306C244.672 162.319 240.267 159.747 236.849 161.821C234.973 162.96 233.567 165.199 233.833 169.433C234.541 180.725 245.731 177.685 245.731 177.36C245.73 177.159 245.29 170.975 244.957 166.306Z" fill="#FFBE9D"/>
<path d="M242.013 173.298C241.961 173.265 241.825 173.448 241.502 173.621C241.187 173.79 240.636 173.927 240.033 173.743C238.813 173.38 237.69 171.549 237.508 169.517C237.415 168.491 237.569 167.499 237.882 166.666C238.175 165.818 238.672 165.208 239.267 165.063C239.856 164.887 240.304 165.22 240.462 165.529C240.633 165.835 240.575 166.065 240.637 166.081C240.67 166.107 240.867 165.877 240.747 165.416C240.686 165.195 240.537 164.937 240.259 164.736C239.974 164.533 239.569 164.445 239.153 164.517C238.286 164.632 237.552 165.482 237.208 166.396C236.816 167.318 236.619 168.434 236.723 169.586C236.938 171.857 238.236 173.913 239.898 174.282C240.705 174.44 241.353 174.159 241.678 173.871C242.01 173.572 242.053 173.316 242.013 173.298Z" fill="#EB996E"/>
<path d="M246.315 181.004C246.343 181.003 246.395 181.23 246.295 181.632C246.191 182.024 245.894 182.588 245.271 183.014C244.668 183.453 243.675 183.652 242.734 183.305C241.794 182.991 240.914 182.18 240.51 181.114C240.094 180.053 240.099 178.944 240.323 178.007C240.549 177.064 241.006 176.297 241.492 175.758C242.501 174.66 243.506 174.592 243.489 174.639C243.533 174.73 242.623 174.928 241.773 175.997C241.36 176.523 240.974 177.246 240.792 178.113C240.611 178.97 240.626 179.987 240.995 180.921C241.353 181.86 242.093 182.554 242.898 182.853C243.704 183.17 244.521 183.045 245.074 182.703C245.641 182.37 245.954 181.902 246.104 181.565C246.251 181.221 246.272 181.002 246.315 181.004Z" fill="white"/>
<path d="M280.397 123.194C280.342 123.25 279.698 122.279 278.009 121.169C276.326 120.098 273.429 119.078 269.826 119.452C268.038 119.615 266.11 120.163 264.241 121.131C262.378 122.13 260.567 123.524 258.928 125.253C257.276 126.972 255.796 129.012 254.419 131.219C253.045 133.431 251.802 135.833 250.509 138.288C249.216 140.744 247.926 143.141 246.474 145.338C245.037 147.541 243.403 149.521 241.666 151.199C239.946 152.894 238.232 154.403 236.756 155.935C235.276 157.459 234.027 159.011 233.176 160.593C231.457 163.774 231.265 166.863 231.744 168.8C232.213 170.774 233.063 171.621 232.984 171.66C232.97 171.671 232.798 171.449 232.481 171.012C232.212 170.55 231.793 169.853 231.548 168.849C230.995 166.877 231.133 163.699 232.851 160.421C233.705 158.784 234.963 157.19 236.445 155.637C237.924 154.075 239.632 152.549 241.328 150.859C243.04 149.184 244.629 147.242 246.048 145.058C247.478 142.883 248.757 140.5 250.049 138.046C251.341 135.594 252.594 133.181 253.987 130.95C255.383 128.725 256.891 126.662 258.583 124.921C260.262 123.169 262.124 121.755 264.041 120.749C265.976 119.767 267.96 119.229 269.793 119.085C273.487 118.749 276.441 119.853 278.122 120.999C278.964 121.588 279.545 122.141 279.895 122.549C280.238 122.962 280.411 123.183 280.397 123.194Z" fill="#455A64"/>
<path d="M195.309 245.428L197.406 235.287L178.089 226.473C178.089 226.473 177.911 227.065 177.591 228.13C174.83 237.321 161.065 281.61 160.23 284.915C157.124 297.206 157.812 321.525 162.72 326.081C166.635 329.716 174.169 332.402 179.149 331.849C184.128 331.296 197.853 313.632 197.853 313.632L210.451 273.291L195.309 245.428Z" fill="#FFBE9D"/>
<path d="M196.161 239.398C196.179 239.401 196.145 239.672 196.066 240.183C195.973 240.742 195.848 241.485 195.693 242.416C195.335 244.404 194.833 247.19 194.217 250.609C193.6 254.068 192.869 258.188 192.243 262.786C191.626 267.383 191.1 272.467 191.076 277.814C191.076 283.163 191.644 288.244 192.765 292.744C193.859 297.243 194.864 301.378 194.759 304.945C194.708 308.502 193.719 311.304 192.683 312.986C191.656 314.693 190.743 315.35 190.743 315.35C190.687 315.303 191.553 314.594 192.507 312.885C193.472 311.2 194.386 308.439 194.39 304.941C194.447 301.438 193.421 297.362 192.298 292.856C191.144 288.337 190.554 283.193 190.555 277.813C190.58 272.43 191.123 267.326 191.768 262.72C192.422 258.112 193.192 253.994 193.856 250.541C194.54 247.134 195.097 244.358 195.494 242.377C195.69 241.453 195.846 240.716 195.963 240.162C196.075 239.658 196.143 239.394 196.161 239.398Z" fill="#EB996E"/>
<path d="M216.133 218.517L212.391 214.38V209.456L208.506 203.882L200.77 205.123L198.406 205.32L199.979 194.018C199.979 194.018 200.704 191.161 203.461 185.646C206.219 180.131 201.778 177.602 201.778 177.602L193.481 192.122L190.723 201.774L189.541 193.895C189.541 193.895 190.941 186.237 190.744 182.298C190.547 178.359 186.586 178.925 186.586 178.925L183.434 196.259V204.926L180.676 199.805C180.676 199.805 180.085 195.472 179.691 191.532C179.297 187.593 176.145 188.774 176.145 188.774V201.577L179.691 213.395C179.691 213.395 177.362 228.646 176.968 229.237L195.209 242.019C195.209 242.019 199.192 239.002 199.98 238.805C200.768 238.608 210.617 231.32 210.617 231.32L217.511 224.032C217.511 224.032 218.693 223.244 218.693 222.456C218.693 221.668 216.133 218.517 216.133 218.517ZM206.678 223.244L202.738 221.471L200.571 216.153L202.176 213.234L202.737 212.213L203.459 211.709L206.086 212.213C206.086 212.213 207.268 215.956 207.071 217.728C206.874 219.501 209.238 221.274 209.238 221.274L206.678 223.244Z" fill="#FFBE9D"/>
<path d="M203.461 211.708C203.454 211.77 203.098 211.803 202.556 211.632C202.016 211.466 201.313 211.051 200.758 210.377C200.205 209.7 199.935 208.929 199.878 208.368C199.817 207.802 199.919 207.46 199.981 207.465C200.131 207.457 200.134 208.831 201.161 210.046C202.15 211.29 203.497 211.562 203.461 211.708Z" fill="#EB996E"/>
<path d="M213.599 221.92C213.453 221.897 213.54 220.617 213.608 219.045C213.681 217.473 213.709 216.19 213.856 216.18C213.996 216.169 214.203 217.462 214.128 219.068C214.059 220.673 213.738 221.943 213.599 221.92Z" fill="#EB996E"/>
<path d="M207.526 229.367C207.479 229.409 207.026 229.046 206.461 228.287C205.923 227.53 205.248 226.286 205.439 224.736C205.5 224.353 205.673 223.977 205.925 223.692C206.155 223.436 206.391 223.21 206.621 223.001C207.082 222.586 207.522 222.247 207.902 221.978C208.658 221.438 209.203 221.193 209.24 221.273C209.263 221.324 208.819 221.66 208.129 222.268C207.784 222.568 207.377 222.93 206.949 223.35C206.736 223.561 206.517 223.785 206.308 224.027C206.127 224.244 206.001 224.515 205.95 224.826C205.844 225.45 205.974 226.101 206.136 226.66C206.298 227.22 206.542 227.694 206.768 228.084C207.231 228.861 207.587 229.315 207.526 229.367Z" fill="#EB996E"/>
<path d="M212.4 213.88C212.524 213.863 212.512 215.919 211.086 217.94C210.722 218.432 210.254 218.842 209.744 219.064C209.225 219.293 208.7 219.295 208.296 219.199C207.451 218.984 207.228 218.405 207.291 218.398C207.352 218.342 207.653 218.755 208.362 218.837C208.706 218.875 209.138 218.834 209.539 218.63C209.95 218.425 210.338 218.073 210.669 217.628C211.985 215.779 212.244 213.84 212.4 213.88Z" fill="#EB996E"/>
<path d="M207.089 217.444C206.968 217.442 206.683 215.712 206.131 213.573C205.877 212.499 205.681 211.509 205.614 210.778C205.542 210.047 205.591 209.589 205.659 209.586C205.735 209.583 205.816 210.021 205.978 210.719C206.214 211.695 206.419 212.546 206.638 213.453C207.193 215.597 207.259 217.443 207.089 217.444Z" fill="#EB996E"/>
<path d="M213.597 223.096C213.593 223.21 211.396 222.941 209.137 221.518C208.565 221.173 208.054 220.756 207.683 220.285C207.313 219.813 207.097 219.299 207.015 218.858C206.852 217.968 207.036 217.435 207.088 217.445C207.177 217.447 207.136 217.99 207.372 218.766C207.585 219.553 208.309 220.441 209.409 221.073C211.577 222.445 213.643 222.927 213.597 223.096Z" fill="#EB996E"/>
<path d="M197.364 227.475C197.217 227.565 195.945 224.596 192.995 222.098C190.08 219.557 186.954 218.746 187.021 218.587C187.035 218.53 187.827 218.648 189.033 219.108C190.236 219.563 191.832 220.417 193.335 221.703C194.832 222.994 195.915 224.443 196.546 225.564C197.182 226.687 197.418 227.453 197.364 227.475Z" fill="#EB996E"/>
<path d="M190.76 209.086C190.766 209.24 189.317 209.362 187.653 209.946C185.983 210.514 184.768 211.313 184.677 211.188C184.588 211.089 185.722 210.055 187.483 209.454C189.239 208.84 190.769 208.952 190.76 209.086Z" fill="#EB996E"/>
<path d="M222.418 428.695C222.418 428.695 163.992 444.866 161.648 445.691C158.129 446.93 158.72 459.825 164.197 459.624C166.788 459.529 209.074 461.199 214.417 460.865C219.76 460.531 234.138 454.851 234.138 454.851L222.418 428.695Z" fill="#455A64"/>
<path d="M198.079 450.988C197.785 451.029 197.391 447.938 195.504 444.715C193.664 441.464 191.191 439.571 191.373 439.337C191.475 439.112 194.377 440.758 196.351 444.228C198.36 447.676 198.326 451.013 198.079 450.988Z" fill="#263238"/>
<path d="M204.171 448.228C203.885 448.278 203.293 445.515 201.737 442.464C200.211 439.396 198.345 437.275 198.555 437.076C198.716 436.884 200.998 438.795 202.61 442.025C204.245 445.241 204.421 448.213 204.171 448.228Z" fill="#263238"/>
<path d="M209.883 446.698C209.588 446.68 209.813 443.762 208.516 440.525C207.274 437.266 205.13 435.275 205.334 435.061C205.451 434.839 208.071 436.645 209.427 440.169C210.82 443.677 210.12 446.782 209.883 446.698Z" fill="#263238"/>
<path d="M208.846 439.15C208.742 439.176 208.224 437.545 208.219 434.803C208.223 433.438 208.38 431.803 208.811 430.039C209.025 429.157 209.314 428.246 209.681 427.327C209.87 426.863 210.086 426.329 210.617 425.895C211.162 425.406 212.153 425.507 212.623 425.994C213.159 426.461 213.328 427.119 213.402 427.646C213.461 428.183 213.491 428.683 213.478 429.189C213.464 430.195 213.334 431.159 213.117 432.049C212.685 433.833 211.989 435.329 211.319 436.515C209.957 438.886 208.778 440.098 208.695 440.033C208.561 439.939 209.54 438.579 210.707 436.196C211.281 435.004 211.88 433.541 212.239 431.852C212.419 431.01 212.52 430.111 212.52 429.183C212.494 428.285 212.507 427.163 211.982 426.731C211.703 426.5 211.452 426.485 211.209 426.666C210.951 426.863 210.735 427.263 210.569 427.687C210.207 428.56 209.913 429.425 209.684 430.265C209.224 431.944 209.002 433.508 208.911 434.827C208.739 437.473 209.005 439.127 208.846 439.15Z" fill="#263238"/>
<path d="M208.918 438.557C208.891 438.45 210.301 437.965 212.686 437.949C213.873 437.947 215.298 438.072 216.831 438.457C217.588 438.661 218.401 438.857 219.219 439.337C220.019 439.743 220.856 440.854 220.539 442.007C220.289 443.093 219.358 443.854 218.434 444.092C217.504 444.352 216.603 444.259 215.813 444.085C214.21 443.717 212.963 442.928 212.017 442.219C210.145 440.75 209.23 439.626 209.3 439.544C209.403 439.42 210.509 440.381 212.412 441.652C213.37 442.264 214.568 442.925 215.996 443.203C216.706 443.339 217.471 443.381 218.163 443.173C218.851 442.983 219.422 442.459 219.586 441.784C219.754 441.131 219.357 440.533 218.718 440.154C218.092 439.766 217.318 439.543 216.598 439.327C215.152 438.914 213.801 438.724 212.661 438.64C210.376 438.48 208.942 438.714 208.918 438.557Z" fill="#263238"/>
<path d="M189.102 451.616C188.813 451.583 189.099 449.086 187.95 446.346C186.856 443.583 184.906 441.998 185.09 441.772C185.186 441.534 187.629 442.918 188.856 445.976C190.116 449.021 189.338 451.719 189.102 451.616Z" fill="#263238"/>
<path d="M229.869 454.312C229.895 454.374 229.091 454.749 227.609 455.375C226.108 455.942 223.911 456.736 221.107 457.39C215.519 458.798 207.553 459.597 198.801 459.504C190.045 459.408 182.155 459.009 176.434 458.78C173.726 458.636 171.456 458.516 169.663 458.421C168.065 458.314 167.183 458.223 167.184 458.156C167.186 458.088 168.073 458.051 169.674 458.04C171.469 458.053 173.742 458.069 176.454 458.088C182.372 458.204 190.176 458.357 198.806 458.525C207.518 458.616 215.389 457.934 220.955 456.715C226.54 455.568 229.801 454.131 229.869 454.312Z" fill="#263238"/>
<path d="M231.596 455.643C231.517 455.778 229.918 454.844 227.219 453.66C224.552 452.515 220.553 451.144 216.163 451.822C211.76 452.496 208.639 455.454 206.607 457.507C204.558 459.633 203.358 461.046 203.24 460.946C203.152 460.873 204.149 459.321 206.099 457.038C207.085 455.909 208.336 454.601 209.973 453.416C211.592 452.226 213.675 451.214 216.009 450.857C220.719 450.136 224.869 451.71 227.51 453.033C230.191 454.404 231.656 455.547 231.596 455.643Z" fill="#263238"/>
<path d="M172.985 458.17C172.879 458.099 173.378 457.326 173.838 455.962C174.303 454.612 174.66 452.609 174.267 450.471C173.871 448.333 172.822 446.59 171.906 445.494C170.989 444.384 170.248 443.84 170.322 443.736C170.368 443.658 171.24 444.043 172.322 445.116C173.397 446.17 174.619 448.005 175.048 450.326C175.475 452.646 174.989 454.797 174.362 456.165C173.734 457.555 173.055 458.226 172.985 458.17Z" fill="#263238"/>
<path d="M216.726 346.172L206.229 372.033C206.229 372.033 154.052 352.941 123.509 358.503C111.896 360.618 99.4668 386.967 116.388 403.887C132.897 420.396 162.423 443.734 217.811 451.288C219.193 451.477 241.879 456.348 240.482 456.183C239.085 456.018 272.289 461.273 272.289 461.273L280.084 431.797L341.949 441.505C378.408 439.015 396.252 400.029 374.296 387.479C353.814 375.772 315.302 374.833 315.302 374.833L305.844 349.043L216.726 346.172Z" fill="#263238"/>
<path d="M273.52 462.341C273.683 461.344 274.123 458.659 275.025 453.152C275.517 450.212 276.124 446.629 276.905 442.506C277.297 440.445 277.736 438.249 278.258 435.937C278.524 434.782 278.807 433.597 279.145 432.391C279.318 431.789 279.498 431.18 279.718 430.57C279.948 429.96 280.145 429.347 280.656 428.751L280.749 429.198C267.579 424.523 251.12 418.347 233.573 410.949C222.785 406.36 212.607 401.725 203.652 396.901C199.191 394.475 194.989 392.031 191.379 389.29C187.738 386.601 184.497 383.917 181.458 381.578C175.437 376.829 169.98 373.76 165.895 372.456C164.894 372.071 163.967 371.86 163.17 371.651C162.378 371.419 161.691 371.298 161.134 371.21C160.607 371.114 160.189 371.038 159.87 370.98C159.585 370.924 159.44 370.89 159.441 370.879C159.442 370.868 159.59 370.879 159.878 370.913C160.2 370.955 160.622 371.01 161.155 371.079C161.718 371.146 162.413 371.247 163.215 371.459C164.022 371.649 164.961 371.842 165.976 372.211C168.044 372.823 170.465 373.912 173.138 375.398C175.811 376.893 178.686 378.876 181.743 381.205C184.808 383.526 188.065 386.188 191.703 388.845C195.307 391.551 199.482 393.955 203.942 396.362C212.884 401.14 223.055 405.753 233.832 410.336C251.36 417.726 267.797 423.946 280.926 428.695L281.293 428.828L281.02 429.142C280.675 429.539 280.416 430.172 280.208 430.75C279.991 431.339 279.809 431.939 279.635 432.532C279.293 433.722 279.003 434.899 278.73 436.047C278.193 438.346 277.737 440.534 277.327 442.589C276.509 446.699 275.861 450.274 275.324 453.205C274.786 456.104 274.362 458.383 274.066 459.981C273.912 460.758 273.789 461.351 273.692 461.747C273.599 462.144 273.52 462.341 273.52 462.341Z" fill="#455A64"/>
<path d="M362.293 391.035C362.29 391.046 362.178 391.036 361.96 391.005C361.705 390.964 361.388 390.914 360.997 390.852C360.147 390.74 358.92 390.423 357.301 390.267C354.088 389.793 349.375 389.483 343.579 389.781C337.779 390.058 330.924 391.176 323.491 393.095C319.782 394.089 315.922 395.257 311.971 396.625C308.02 397.997 303.992 399.573 299.864 401.217C295.729 402.887 291.567 404.178 287.52 405.29C283.472 406.408 279.516 407.28 275.732 408.012C268.163 409.486 261.28 410.396 255.499 411.101C249.717 411.798 245.03 412.281 241.791 412.613C240.212 412.768 238.965 412.89 238.06 412.979C237.665 413.011 237.346 413.037 237.088 413.058C236.869 413.072 236.755 413.074 236.754 413.062C236.753 413.051 236.863 413.027 237.08 412.99C237.336 412.952 237.653 412.904 238.045 412.846C238.947 412.727 240.189 412.563 241.762 412.356C245.046 411.943 249.705 411.356 255.44 410.635C261.208 409.871 268.073 408.914 275.613 407.411C279.383 406.665 283.321 405.782 287.347 404.661C291.373 403.546 295.51 402.258 299.617 400.598C303.741 398.955 307.792 397.376 311.757 396.008C315.725 394.644 319.606 393.483 323.336 392.501C330.814 390.606 337.718 389.53 343.555 389.311C349.389 389.071 354.124 389.456 357.338 390.01C358.958 390.206 360.182 390.565 361.024 390.72C361.41 390.809 361.723 390.881 361.975 390.938C362.188 390.991 362.296 391.023 362.293 391.035Z" fill="#455A64"/>
<path d="M266.986 380.428C267.025 380.866 264.217 381.569 259.583 382.004C254.956 382.442 248.498 382.524 241.427 381.772C234.355 381.009 228.061 379.56 223.631 378.152C219.195 376.746 216.6 375.464 216.731 375.044C217.024 374.111 227.982 377.027 241.782 378.463C255.568 379.982 266.897 379.454 266.986 380.428Z" fill="#263238"/>
<path d="M315.889 375.252C315.897 375.297 315.167 375.489 313.847 375.796C313.183 375.934 312.381 376.141 311.458 376.419C310.531 376.678 309.475 376.965 308.334 377.376C306.021 378.095 303.358 379.213 300.436 380.513C297.543 381.883 294.426 383.523 291.251 385.417C284.917 389.241 279.552 393.281 275.763 396.309C273.865 397.821 272.35 399.072 271.309 399.945C270.265 400.814 269.673 401.279 269.642 401.245C269.611 401.211 270.145 400.681 271.138 399.75C272.128 398.816 273.599 397.507 275.465 395.944C279.188 392.814 284.534 388.693 290.908 384.845C294.102 382.939 297.251 381.303 300.18 379.954C303.139 378.674 305.842 377.594 308.191 376.927C309.349 376.543 310.423 376.285 311.365 376.059C312.302 375.814 313.118 375.642 313.794 375.543C315.137 375.313 315.881 375.207 315.889 375.252Z" fill="#455A64"/>
<path d="M257.891 401.244C257.871 401.32 256.439 401.013 254.226 400.2C252.009 399.399 249.043 398.052 245.853 396.42C242.78 394.81 240.001 393.355 237.737 392.169C235.662 391.086 234.361 390.446 234.399 390.356C234.432 390.277 235.806 390.766 237.943 391.746C240.084 392.718 242.973 394.197 246.154 395.827C249.336 397.455 252.244 398.857 254.398 399.763C256.547 400.68 257.92 401.144 257.891 401.244Z" fill="#455A64"/>
<path d="M263.534 347.684C263.635 347.7 263.457 350.067 263.262 353.895C263.065 357.723 262.894 363.017 262.982 368.863C263.076 374.711 263.412 379.994 263.727 383.809C264.041 387.625 264.292 389.981 264.192 390.001C264.147 390.01 264.031 389.432 263.859 388.376C263.684 387.321 263.476 385.785 263.259 383.878C262.822 380.066 262.41 374.76 262.315 368.878C262.226 362.998 262.473 357.676 262.791 353.846C262.949 351.931 263.108 350.385 263.25 349.323C263.39 348.26 263.488 347.677 263.534 347.684Z" fill="#455A64"/>
<path d="M269.341 357.829C269.374 357.883 269.121 358.032 268.796 358.41C268.469 358.781 268.104 359.426 267.981 360.294C267.873 361.145 268.027 362.271 268.783 363.092C269.513 363.933 270.896 364.18 272.118 363.723C273.344 363.274 274.23 362.185 274.235 361.071C274.273 359.955 273.656 359.001 273.019 358.426C272.359 357.848 271.663 357.596 271.173 357.528C270.68 357.453 270.391 357.504 270.381 357.442C270.372 357.416 270.648 357.273 271.194 357.27C271.733 357.262 272.539 357.463 273.321 358.065C274.072 358.663 274.85 359.71 274.849 361.087C274.878 362.48 273.781 363.836 272.349 364.348C270.93 364.893 269.215 364.579 268.329 363.504C267.431 362.461 267.337 361.16 267.516 360.217C267.717 359.251 268.198 358.572 268.613 358.227C269.029 357.875 269.331 357.804 269.341 357.829Z" fill="#455A64"/>
<path d="M280.449 430.988C280.449 430.988 339.745 440.001 342.144 440.536C345.747 441.339 346.683 454.076 341.279 454.523C338.722 454.735 297.38 461.348 292.092 461.649C286.804 461.949 270.223 457.605 270.223 457.605L280.449 430.988Z" fill="#455A64"/>
<path d="M306.981 450.027C307.274 450.032 307.298 446.95 308.773 443.562C310.198 440.152 312.405 438.001 312.198 437.793C312.071 437.583 309.414 439.542 307.883 443.183C306.316 446.806 306.742 450.081 306.981 450.027Z" fill="#263238"/>
<path d="M300.67 448.028C300.957 448.043 301.213 445.26 302.383 442.079C303.521 438.886 305.105 436.584 304.875 436.412C304.694 436.243 302.677 438.388 301.473 441.75C300.246 445.103 300.423 448.043 300.67 448.028Z" fill="#263238"/>
<path d="M294.879 447.198C295.166 447.146 294.603 444.305 295.496 440.974C296.332 437.627 298.205 435.418 297.979 435.232C297.838 435.028 295.477 437.11 294.559 440.731C293.603 444.341 294.656 447.308 294.879 447.198Z" fill="#263238"/>
<path d="M295.009 439.663C295.115 439.676 295.431 438.013 295.113 435.319C294.949 433.978 294.602 432.391 293.971 430.709C293.657 429.868 293.266 429.007 292.798 428.147C292.558 427.714 292.283 427.215 291.71 426.851C291.117 426.435 290.155 426.65 289.75 427.184C289.279 427.706 289.19 428.372 289.18 428.898C289.185 429.432 289.215 429.927 289.287 430.423C289.419 431.409 289.66 432.341 289.978 433.19C290.612 434.892 291.472 436.28 292.27 437.366C293.887 439.535 295.188 440.586 295.262 440.512C295.382 440.405 294.26 439.183 292.834 436.979C292.13 435.876 291.369 434.508 290.818 432.892C290.542 432.086 290.337 431.215 290.227 430.303C290.147 429.418 290.002 428.317 290.467 427.832C290.713 427.573 290.958 427.528 291.218 427.677C291.494 427.84 291.754 428.208 291.967 428.604C292.425 429.419 292.816 430.235 293.14 431.032C293.789 432.627 294.191 434.137 294.436 435.423C294.916 438.003 294.849 439.659 295.009 439.663Z" fill="#263238"/>
<path d="M294.866 439.086C294.88 438.978 293.438 438.667 291.093 438.932C289.927 439.07 288.542 439.36 287.081 439.919C286.362 440.209 285.586 440.497 284.839 441.064C284.101 441.557 283.409 442.747 283.856 443.842C284.23 444.88 285.234 445.518 286.169 445.643C287.113 445.789 287.987 445.592 288.743 445.328C290.274 444.778 291.406 443.856 292.252 443.048C293.919 441.385 294.685 440.173 294.606 440.101C294.49 439.991 293.516 441.065 291.796 442.538C290.927 443.251 289.828 444.042 288.458 444.483C287.776 444.7 287.03 444.832 286.326 444.708C285.628 444.603 285.005 444.155 284.765 443.511C284.524 442.889 284.842 442.255 285.426 441.807C285.995 441.352 286.73 441.042 287.411 440.746C288.782 440.17 290.088 439.825 291.198 439.608C293.425 439.181 294.861 439.242 294.866 439.086Z" fill="#263238"/>
<path d="M315.871 449.587C316.151 449.521 315.576 447.101 316.383 444.275C317.132 441.432 318.862 439.646 318.655 439.446C318.533 439.223 316.295 440.871 315.45 444.019C314.569 447.157 315.651 449.716 315.871 449.587Z" fill="#263238"/>
<path d="M276.141 457.03C276.123 457.094 276.956 457.368 278.486 457.809C280.027 458.189 282.279 458.711 285.11 459.024C290.764 459.75 298.684 459.598 307.27 458.477C315.86 457.353 323.564 456.033 329.157 455.135C331.801 454.675 334.016 454.29 335.766 453.986C337.323 453.693 338.179 453.5 338.169 453.435C338.159 453.369 337.284 453.436 335.709 453.614C333.948 453.838 331.717 454.121 329.055 454.459C323.255 455.269 315.607 456.337 307.15 457.518C298.602 458.633 290.791 458.888 285.18 458.345C279.559 457.873 276.186 456.844 276.141 457.03Z" fill="#263238"/>
<path d="M274.604 458.539C274.697 458.662 276.158 457.556 278.67 456.076C281.156 454.638 284.923 452.82 289.315 452.97C293.72 453.114 297.133 455.653 299.371 457.431C301.634 459.279 302.979 460.525 303.083 460.413C303.161 460.331 301.999 458.923 299.815 456.91C298.714 455.917 297.331 454.779 295.583 453.808C293.853 452.83 291.687 452.08 289.353 452.004C284.642 451.85 280.75 453.884 278.311 455.495C275.838 457.158 274.534 458.453 274.604 458.539Z" fill="#263238"/>
<path d="M314.417 282.079C314.189 283.542 313.418 323.051 315.779 326.672C319.493 332.367 331.455 342.567 338.89 339.779C350.956 335.255 353.686 309.725 353.474 314.463L343.916 233.789H325.531L324.001 262.721L318.642 265.993C318.29 269.322 317.592 272.627 316.589 275.911L314.417 282.079Z" fill="#FFBE9D"/>
<path d="M325.532 233.789C325.532 233.789 318.188 226.535 318.188 224.923C318.188 223.311 315.322 222.415 315.322 222.415L310.665 220.086C310.665 220.086 307.62 217.22 308.336 215.608C309.052 213.996 310.306 213.458 310.306 213.458C310.306 213.458 310.543 209.517 313.47 208.442C313.47 208.442 310.723 205.397 313.47 203.247C316.217 201.097 316.879 201.993 316.879 201.993C316.879 201.993 316.575 199.664 318.188 199.485C319.8 199.306 331.317 196.44 331.317 196.44C331.317 196.44 334.489 198.052 335.922 199.485C337.355 200.918 338.072 201.814 338.072 201.814C338.072 201.814 340.221 199.127 340.938 196.44C341.654 193.753 342.729 185.692 350.79 186.051V188.021C350.79 188.021 348.64 190.887 347.566 195.903C346.491 200.919 344.521 212.01 344.521 212.01L343.918 233.788L325.532 233.789Z" fill="#FFBE9D"/>
<path d="M318.449 314.262C318.431 314.265 318.377 313.986 318.29 313.451C318.213 312.915 318.055 312.129 317.977 311.102C317.753 309.056 317.61 306.066 317.852 302.388C318.082 298.711 318.674 294.358 319.575 289.581C320.447 284.798 321.631 279.585 322.512 274.063C324.225 262.993 324.448 252.819 324.729 245.485C324.858 241.852 324.963 238.895 325.038 236.789C325.087 235.8 325.127 235.013 325.156 234.425C325.189 233.885 325.215 233.602 325.233 233.602C325.251 233.603 325.26 233.887 325.261 234.428C325.256 235.016 325.249 235.804 325.24 236.794C325.205 238.901 325.156 241.86 325.096 245.495C324.908 252.832 324.744 263.026 323.025 274.143C322.14 279.694 320.941 284.9 320.045 289.669C319.119 294.432 318.493 298.758 318.217 302.412C317.929 306.067 318.015 309.041 318.176 311.083C318.223 312.108 318.348 312.896 318.391 313.435C318.447 313.975 318.467 314.259 318.449 314.262Z" fill="#EB996E"/>
<path d="M331.281 200.819C331.272 200.89 330.481 200.868 329.205 201.037C327.923 201.199 326.143 201.391 324.177 201.569C320.243 201.927 317.044 202.1 317.031 201.957C317.018 201.814 320.196 201.408 324.13 201.05C326.097 200.872 327.878 200.737 329.174 200.669C330.479 200.593 331.293 200.747 331.281 200.819Z" fill="#EB996E"/>
<path d="M327.895 209.421C327.882 209.498 327.093 209.417 325.819 209.347C324.545 209.271 322.783 209.238 320.826 209.194C318.869 209.15 317.087 209.026 315.812 208.819C314.535 208.618 313.771 208.374 313.785 208.311C313.801 208.233 314.586 208.347 315.855 208.453C317.125 208.565 318.884 208.629 320.839 208.673C322.793 208.717 324.573 208.808 325.852 208.98C327.133 209.146 327.907 209.357 327.895 209.421Z" fill="#EB996E"/>
<path d="M325.249 216.368C325.236 216.439 324.428 216.338 323.131 216.118C321.834 215.898 320.049 215.559 318.084 215.153C316.118 214.747 314.344 214.35 313.067 214.038C311.789 213.726 311.008 213.498 311.024 213.428C311.04 213.358 311.85 213.459 313.147 213.679C314.444 213.899 316.227 214.238 318.19 214.643C320.152 215.049 321.923 215.444 323.201 215.756C324.478 216.069 325.263 216.298 325.249 216.368Z" fill="#EB996E"/>
</svg>
